<svg xmlns="http://www.w3.org/2000/svg" width="799.17" height="301.81" viewBox="0 0 799.17 301.81">
  <defs>
    <style>
      .f02d9938-be88-42cc-bc0b-77191cafb822 {
        fill: #27687a;
      }
    </style>
  <radialGradient id="grad-grad-dc660c2c-2898-44db-8b50-6a30b4e92875" cx="33.23157935660006%" cy="37.71227336120251%" r="50%"><stop offset="0%" stop-color="#FBCB06" stop-opacity="1"/><stop offset="100%" stop-color="#FBCB06" stop-opacity="0"/></radialGradient><radialGradient id="grad-grad-095c4caa-ef99-4858-8580-5ce5a50271ef" cx="48.87375797653738%" cy="84.10188906164578%" r="118%"><stop offset="0%" stop-color="#EA993D" stop-opacity="1"/><stop offset="100%" stop-color="#EA993D" stop-opacity="0"/></radialGradient><radialGradient id="grad-grad-e1987485-2181-48bf-bbe1-09e0a5580a6c" cx="95.73569357994074%" cy="88.85128005693772%" r="150%"><stop offset="0%" stop-color="#F3A4AF" stop-opacity="1"/><stop offset="100%" stop-color="#F3A4AF" stop-opacity="0"/></radialGradient><radialGradient id="grad-grad-47806d84-9e25-4c99-b0b9-1eeca78aa5f1" cx="26.724433371473488%" cy="83.77053455544775%" r="50%"><stop offset="0%" stop-color="#E38562" stop-opacity="1"/><stop offset="100%" stop-color="#E38562" stop-opacity="0"/></radialGradient><radialGradient id="grad-grad-a3989e49-ed92-41e2-b205-c12161ae9fdc" cx="67.8946441845524%" cy="27.10893169074578%" r="50%"><stop offset="0%" stop-color="#FBCB06" stop-opacity="1"/><stop offset="100%" stop-color="#FBCB06" stop-opacity="0"/></radialGradient><radialGradient id="grad-grad-d7b16c24-77bb-478a-b48f-66ced4e66124" cx="17.21398835813641%" cy="27.440286196943802%" r="50%"><stop offset="0%" stop-color="#FBCB06" stop-opacity="1"/><stop offset="100%" stop-color="#FBCB06" stop-opacity="0"/></radialGradient><radialGradient id="grad-grad-9d2c8086-be08-4055-b31e-79940b213952" cx="71.52363051030679%" cy="44.339363485162956%" r="50%"><stop offset="0%" stop-color="#FBCB06" stop-opacity="1"/><stop offset="100%" stop-color="#FBCB06" stop-opacity="0"/></radialGradient></defs>
  <title>AAuniformes_SVG_2</title>
  <g id="afe3f351-f671-406a-874a-c8a094eb236f" data-name="Capa 2">
    <g id="a4abef92-948a-44d9-a3c0-eb34a6605859" data-name="Capa 1">
      <g><path id="b706f3f7-fd55-4ee5-a819-516bf5ffcdeb" data-name="SVGID" d="M286.33,155.37H272.47a49.12,49.12,0,0,1,98.24,0H286.33Zm-2.62-54.89a25.59,25.59,0,0,0-8.59-11.19,19.6,19.6,0,0,0-7.18-3.36,19.64,19.64,0,0,0,1.41,7.8,24.91,24.91,0,0,0,3.52,6.19,25.32,25.32,0,0,0,5.09,5,19.86,19.86,0,0,0,7.18,3.38A19.81,19.81,0,0,0,283.71,100.48Zm41.48-12a25.13,25.13,0,0,0,1-7,24.88,24.88,0,0,0-1-7.06,19.45,19.45,0,0,0-3.61-7.06,19.46,19.46,0,0,0-3.66,7,24.76,24.76,0,0,0-1,7,25.3,25.3,0,0,0,1,7.06,19.65,19.65,0,0,0,3.6,7.06A19.74,19.74,0,0,0,325.19,88.51Zm41,16A25.35,25.35,0,0,0,371,99.18a24.66,24.66,0,0,0,3.13-6.39,19.7,19.7,0,0,0,.94-7.88,19.75,19.75,0,0,0-7,3.8,25.35,25.35,0,0,0-4.76,5.3,24.86,24.86,0,0,0-3.12,6.4,19.83,19.83,0,0,0-.95,7.87A20,20,0,0,0,366.2,104.47Z" fill="url(#grad-grad-dc660c2c-2898-44db-8b50-6a30b4e92875)"/><path id="b706f3f7-fd55-4ee5-a819-516bf5ffcdeb" data-name="SVGID" d="M286.33,155.37H272.47a49.12,49.12,0,0,1,98.24,0H286.33Zm-2.62-54.89a25.59,25.59,0,0,0-8.59-11.19,19.6,19.6,0,0,0-7.18-3.36,19.64,19.64,0,0,0,1.41,7.8,24.91,24.91,0,0,0,3.52,6.19,25.32,25.32,0,0,0,5.09,5,19.86,19.86,0,0,0,7.18,3.38A19.81,19.81,0,0,0,283.71,100.48Zm41.48-12a25.13,25.13,0,0,0,1-7,24.88,24.88,0,0,0-1-7.06,19.45,19.45,0,0,0-3.61-7.06,19.46,19.46,0,0,0-3.66,7,24.76,24.76,0,0,0-1,7,25.3,25.3,0,0,0,1,7.06,19.65,19.65,0,0,0,3.6,7.06A19.74,19.74,0,0,0,325.19,88.51Zm41,16A25.35,25.35,0,0,0,371,99.18a24.66,24.66,0,0,0,3.13-6.39,19.7,19.7,0,0,0,.94-7.88,19.75,19.75,0,0,0-7,3.8,25.35,25.35,0,0,0-4.76,5.3,24.86,24.86,0,0,0-3.12,6.4,19.83,19.83,0,0,0-.95,7.87A20,20,0,0,0,366.2,104.47Z" fill="url(#grad-grad-095c4caa-ef99-4858-8580-5ce5a50271ef)"/><path id="b706f3f7-fd55-4ee5-a819-516bf5ffcdeb" data-name="SVGID" d="M286.33,155.37H272.47a49.12,49.12,0,0,1,98.24,0H286.33Zm-2.62-54.89a25.59,25.59,0,0,0-8.59-11.19,19.6,19.6,0,0,0-7.18-3.36,19.64,19.64,0,0,0,1.41,7.8,24.91,24.91,0,0,0,3.52,6.19,25.32,25.32,0,0,0,5.09,5,19.86,19.86,0,0,0,7.18,3.38A19.81,19.81,0,0,0,283.71,100.48Zm41.48-12a25.13,25.13,0,0,0,1-7,24.88,24.88,0,0,0-1-7.06,19.45,19.45,0,0,0-3.61-7.06,19.46,19.46,0,0,0-3.66,7,24.76,24.76,0,0,0-1,7,25.3,25.3,0,0,0,1,7.06,19.65,19.65,0,0,0,3.6,7.06A19.74,19.74,0,0,0,325.19,88.51Zm41,16A25.35,25.35,0,0,0,371,99.18a24.66,24.66,0,0,0,3.13-6.39,19.7,19.7,0,0,0,.94-7.88,19.75,19.75,0,0,0-7,3.8,25.35,25.35,0,0,0-4.76,5.3,24.86,24.86,0,0,0-3.12,6.4,19.83,19.83,0,0,0-.95,7.87A20,20,0,0,0,366.2,104.47Z" fill="url(#grad-grad-e1987485-2181-48bf-bbe1-09e0a5580a6c)"/><path id="b706f3f7-fd55-4ee5-a819-516bf5ffcdeb" data-name="SVGID" d="M286.33,155.37H272.47a49.12,49.12,0,0,1,98.24,0H286.33Zm-2.62-54.89a25.59,25.59,0,0,0-8.59-11.19,19.6,19.6,0,0,0-7.18-3.36,19.64,19.64,0,0,0,1.41,7.8,24.91,24.91,0,0,0,3.52,6.19,25.32,25.32,0,0,0,5.09,5,19.86,19.86,0,0,0,7.18,3.38A19.81,19.81,0,0,0,283.71,100.48Zm41.48-12a25.13,25.13,0,0,0,1-7,24.88,24.88,0,0,0-1-7.06,19.45,19.45,0,0,0-3.61-7.06,19.46,19.46,0,0,0-3.66,7,24.76,24.76,0,0,0-1,7,25.3,25.3,0,0,0,1,7.06,19.65,19.65,0,0,0,3.6,7.06A19.74,19.74,0,0,0,325.19,88.51Zm41,16A25.35,25.35,0,0,0,371,99.18a24.66,24.66,0,0,0,3.13-6.39,19.7,19.7,0,0,0,.94-7.88,19.75,19.75,0,0,0-7,3.8,25.35,25.35,0,0,0-4.76,5.3,24.86,24.86,0,0,0-3.12,6.4,19.83,19.83,0,0,0-.95,7.87A20,20,0,0,0,366.2,104.47Z" fill="url(#grad-grad-47806d84-9e25-4c99-b0b9-1eeca78aa5f1)"/><path id="b706f3f7-fd55-4ee5-a819-516bf5ffcdeb" data-name="SVGID" d="M286.33,155.37H272.47a49.12,49.12,0,0,1,98.24,0H286.33Zm-2.62-54.89a25.59,25.59,0,0,0-8.59-11.19,19.6,19.6,0,0,0-7.18-3.36,19.64,19.64,0,0,0,1.41,7.8,24.91,24.91,0,0,0,3.52,6.19,25.32,25.32,0,0,0,5.09,5,19.86,19.86,0,0,0,7.18,3.38A19.81,19.81,0,0,0,283.71,100.48Zm41.48-12a25.13,25.13,0,0,0,1-7,24.88,24.88,0,0,0-1-7.06,19.45,19.45,0,0,0-3.61-7.06,19.46,19.46,0,0,0-3.66,7,24.76,24.76,0,0,0-1,7,25.3,25.3,0,0,0,1,7.06,19.65,19.65,0,0,0,3.6,7.06A19.74,19.74,0,0,0,325.19,88.51Zm41,16A25.35,25.35,0,0,0,371,99.18a24.66,24.66,0,0,0,3.13-6.39,19.7,19.7,0,0,0,.94-7.88,19.75,19.75,0,0,0-7,3.8,25.35,25.35,0,0,0-4.76,5.3,24.86,24.86,0,0,0-3.12,6.4,19.83,19.83,0,0,0-.95,7.87A20,20,0,0,0,366.2,104.47Z" fill="url(#grad-grad-a3989e49-ed92-41e2-b205-c12161ae9fdc)"/><path id="b706f3f7-fd55-4ee5-a819-516bf5ffcdeb" data-name="SVGID" d="M286.33,155.37H272.47a49.12,49.12,0,0,1,98.24,0H286.33Zm-2.62-54.89a25.59,25.59,0,0,0-8.59-11.19,19.6,19.6,0,0,0-7.18-3.36,19.64,19.64,0,0,0,1.41,7.8,24.91,24.91,0,0,0,3.52,6.19,25.32,25.32,0,0,0,5.09,5,19.86,19.86,0,0,0,7.18,3.38A19.81,19.81,0,0,0,283.71,100.48Zm41.48-12a25.13,25.13,0,0,0,1-7,24.88,24.88,0,0,0-1-7.06,19.45,19.45,0,0,0-3.61-7.06,19.46,19.46,0,0,0-3.66,7,24.76,24.76,0,0,0-1,7,25.3,25.3,0,0,0,1,7.06,19.65,19.65,0,0,0,3.6,7.06A19.74,19.74,0,0,0,325.19,88.51Zm41,16A25.35,25.35,0,0,0,371,99.18a24.66,24.66,0,0,0,3.13-6.39,19.7,19.7,0,0,0,.94-7.88,19.75,19.75,0,0,0-7,3.8,25.35,25.35,0,0,0-4.76,5.3,24.86,24.86,0,0,0-3.12,6.4,19.83,19.83,0,0,0-.95,7.87A20,20,0,0,0,366.2,104.47Z" fill="url(#grad-grad-d7b16c24-77bb-478a-b48f-66ced4e66124)"/><path id="b706f3f7-fd55-4ee5-a819-516bf5ffcdeb" data-name="SVGID" d="M286.33,155.37H272.47a49.12,49.12,0,0,1,98.24,0H286.33Zm-2.62-54.89a25.59,25.59,0,0,0-8.59-11.19,19.6,19.6,0,0,0-7.18-3.36,19.64,19.64,0,0,0,1.41,7.8,24.91,24.91,0,0,0,3.52,6.19,25.32,25.32,0,0,0,5.09,5,19.86,19.86,0,0,0,7.18,3.38A19.81,19.81,0,0,0,283.71,100.48Zm41.48-12a25.13,25.13,0,0,0,1-7,24.88,24.88,0,0,0-1-7.06,19.45,19.45,0,0,0-3.61-7.06,19.46,19.46,0,0,0-3.66,7,24.76,24.76,0,0,0-1,7,25.3,25.3,0,0,0,1,7.06,19.65,19.65,0,0,0,3.6,7.06A19.74,19.74,0,0,0,325.19,88.51Zm41,16A25.35,25.35,0,0,0,371,99.18a24.66,24.66,0,0,0,3.13-6.39,19.7,19.7,0,0,0,.94-7.88,19.75,19.75,0,0,0-7,3.8,25.35,25.35,0,0,0-4.76,5.3,24.86,24.86,0,0,0-3.12,6.4,19.83,19.83,0,0,0-.95,7.87A20,20,0,0,0,366.2,104.47Z" fill="url(#grad-grad-9d2c8086-be08-4055-b31e-79940b213952)"/></g>
      <path class="f02d9938-be88-42cc-bc0b-77191cafb822" d="M546.4,150.4H514.27c1.59-9.68,3.23-19.7,4.87-29.72,5.25-32.06,9.4-57.64,12.34-76,1.75-11,3.08-19.45,3.95-25.18.48-3.14.83-5.56,1.05-7.2.43-3.11,1.14-8.32-4.11-11.14A9.06,9.06,0,0,0,528,0c-5.78,0-10.46,5.77-13.5,9.53l-1.84,2.09c-21.6,24.54-78.15,88.65-123.34,138.78H241.71c1.42-9.63,2.89-19.55,4.34-29.43,4.7-32,8.41-57.58,11-76.07,1.54-10.94,2.7-19.42,3.46-25.23.4-3.15.7-5.59.88-7.29.32-3,.92-8.61-4.78-11.18a11.24,11.24,0,0,0-4.62-1c-4,0-7.45,2.23-10.14,5.39C197.06,58.41,86.29,181.23,56.1,207.83c-18.14,16-34.3,0-37.8-7.9-4-9.09-4.71-26.36-2.25-38.6.17-.87,4.36-14.58-5.47-15.62-11.09-1.17-11,34-10.31,42.95,1.08,13.24,9.53,36,31.5,39.75,11.39,1.92,23.57-1,32.3-8.06,14-11.25,54-54.93,54-54.93s.49.05.74.05l104.91-.2c-3.18,21.45-9.84,67.82-9.84,67.82h15.55l.25-1.68c.06-.35,4.42-29.44,9.84-66H375.75C360.89,181.81,348,195.79,339.14,205a63.21,63.21,0,0,1-10.65,9.22c-1.31.91-9.47,1.93-11.05-6.28-1.4-7.21-5.08-8.81-9.67-8.81a2.7,2.7,0,0,0-.85.13c-4.76,1.42-6,7.67-5.62,10.28.17,1.06,1.62,16,18.49,21a16.59,16.59,0,0,0,4.83.69c7.53,0,16.54-4.58,24.11-12.26,11.49-11.66,29.55-31.24,49.81-53.62h96.11c-3.51,21.36-11.17,67.67-11.17,67.67h17.14s5.14-31,11.17-67.67H546.4c3.74,0,6.79-3.37,6.79-7.51S550.14,150.4,546.4,150.4Zm-415.27,0L243.07,27.1a1.45,1.45,0,0,1,2.52,1.19c-4,27.06-13.31,76.37-20.08,122.11Zm281,0C443.3,115.71,502.8,45,517.53,27.54A1.41,1.41,0,0,1,520,28.69c-4.76,27.77-15.68,78-22.86,121.71Z" id="ffg-layer-57f6643e-a635-4d29-8df1-50e7259f380d"/>
      <g id="ffg-layer-519239d2-aeae-4fe8-8c00-3993a9545c17">
        <path class="f02d9938-be88-42cc-bc0b-77191cafb822" d="M341.65,245.48H357V278q0,8.08,2.3,11.37c1.53,2.19,4.11,3.29,7.72,3.29s6.17-1.09,7.68-3.27,2.26-6,2.26-11.39V245.48h7.8v35q0,10.64-5.36,16t-16.16,5.32a27.64,27.64,0,0,1-9.32-1.58,19.1,19.1,0,0,1-7.14-4.25,15.66,15.66,0,0,1-4-6.12,29.68,29.68,0,0,1-1.17-9.32Z" id="ffg-layer-30c564c8-fe6f-4823-9b54-6ea7f77f180a"/>
        <path class="f02d9938-be88-42cc-bc0b-77191cafb822" d="M397.41,300.38v-54.9h16.88l18.19,28.08V245.48h8.25v54.9h-9l-26.24-40.12v40.12Z" id="ffg-layer-dd39309f-5afa-41e9-84af-d5aa8f964ffa"/>
        <path class="f02d9938-be88-42cc-bc0b-77191cafb822" d="M469.64,300.38h-15.4v-54.9h15.4Z" id="ffg-layer-a030454e-a7b5-471e-ade0-08f7c56aa4b0"/>
        <path class="f02d9938-be88-42cc-bc0b-77191cafb822" d="M483.1,300.38v-54.9h35.15v7.39H498.5v16h18.8v7.39H498.5v24.15Z" id="ffg-layer-20e8968d-fc5f-4ded-bd91-460eaaed8298"/>
        <path class="f02d9938-be88-42cc-bc0b-77191cafb822" d="M553.89,244.37a32.21,32.21,0,0,1,10.94,1.87,26.91,26.91,0,0,1,15.91,14.82,30.39,30.39,0,0,1,2.34,12.05,29.84,29.84,0,0,1-2.36,12,26.9,26.9,0,0,1-15.89,14.78,32.71,32.71,0,0,1-21.86,0,27.44,27.44,0,0,1-9-5.25,27.13,27.13,0,0,1-6.91-9.61,30.39,30.39,0,0,1-2.32-12A29.88,29.88,0,0,1,527.1,261a27.07,27.07,0,0,1,6.87-9.57,26.36,26.36,0,0,1,9-5.21A32.59,32.59,0,0,1,553.89,244.37ZM541.28,273q0,10.31,3.37,16.1t9.24,5.78q5.91,0,9.28-5.78t3.36-16.1q0-10.3-3.34-16.07t-9.3-5.77q-5.91,0-9.26,5.77T541.28,273Z" id="ffg-layer-d4001da7-598b-4273-97d2-48a7fa82e3a2"/>
        <path class="f02d9938-be88-42cc-bc0b-77191cafb822" d="M592.69,300.38v-54.9h23.94q10.33,0,16.23,4.5a14.61,14.61,0,0,1,5.9,12.29,13.57,13.57,0,0,1-3.21,9.34c-2.13,2.43-5.32,4.14-9.56,5.16l13.26,23.61h-17.2l-13.39-27.92h3.45q5.7,0,8.48-2.45t2.77-7.41c0-3.5-1-6.1-2.87-7.78s-4.91-2.52-9-2.52h-3.9v48.08Z" id="ffg-layer-18d8e317-49b0-431c-9d35-0c6cf9dbf7be"/>
        <path class="f02d9938-be88-42cc-bc0b-77191cafb822" d="M648.94,300.38v-54.9h14.37l12.36,29.6L688,245.48H703v54.9H687.7v-36.1l-14.82,36.1H671.4l-14.5-34.49v34.49Z" id="ffg-layer-ee1296cb-6b39-496c-b1bb-9fdb667c5c0b"/>
        <path class="f02d9938-be88-42cc-bc0b-77191cafb822" d="M716.28,300.38v-54.9h34.36v7.39h-19v16h18v7.39h-18V293h20v7.4Z" id="ffg-layer-ab9d8307-0074-4ff1-af79-cc6d0b6e2535"/>
        <path class="f02d9938-be88-42cc-bc0b-77191cafb822" d="M767.48,286.42a16,16,0,0,0,4.2,6.11,8.42,8.42,0,0,0,5.57,2.14,7.29,7.29,0,0,0,5.13-1.85,6,6,0,0,0,2-4.64,6.17,6.17,0,0,0-1.52-4.08,17.2,17.2,0,0,0-5-3.72l-2.17-1.19q-7.47-4-9-5.3a17.4,17.4,0,0,1-4.42-5.4,14.4,14.4,0,0,1-1.29-6.3,17,17,0,0,1,5.32-12.95q5.31-5,13.85-5a20,20,0,0,1,10.52,2.73,18.58,18.58,0,0,1,7.06,7.86l-6.24,4.35a14.27,14.27,0,0,0-4.17-5.91,9.51,9.51,0,0,0-6-2,6.71,6.71,0,0,0-4.82,1.81,6,6,0,0,0-1.91,4.51,5.79,5.79,0,0,0,1.58,4,22.93,22.93,0,0,0,6.1,4l1,.53q8.43,4.2,10.15,5.63a16.09,16.09,0,0,1,4.37,5.27,14.78,14.78,0,0,1,1.33,6.47,16.93,16.93,0,0,1-5.64,13.18q-5.65,5.1-14.68,5.09A22.46,22.46,0,0,1,767.46,299a18.65,18.65,0,0,1-7.54-8Z" id="ffg-layer-22404007-31a1-4dc7-8db2-a17a305a26e4"/>
      </g>
    </g>
  </g>
</svg>